<svg xmlns="http://www.w3.org/2000/svg" width="19.882" height="19.882" viewBox="0 0 19.882 19.882">
  <g id="Icon_feather-image" data-name="Icon feather-image" transform="translate(-3.75 -3.75)">
    <path id="Path_115952" data-name="Path 115952" d="M6.542,4.5h14.3a2.042,2.042,0,0,1,2.042,2.042v14.3a2.042,2.042,0,0,1-2.042,2.042H6.542A2.042,2.042,0,0,1,4.5,20.84V6.542A2.042,2.042,0,0,1,6.542,4.5Z" transform="translate(0 0)" fill="none" stroke="#cfd1d9" stroke-linejoin="round" stroke-width="1.5"/>
    <path id="Path_115953" data-name="Path 115953" d="M13.564,12.032A1.532,1.532,0,1,1,12.032,10.5,1.532,1.532,0,0,1,13.564,12.032Z" transform="translate(-1.915 -1.915)" fill="none" stroke="#cfd1d9" stroke-linejoin="round" stroke-width="1.5"/>
    <path id="Path_115954" data-name="Path 115954" d="M23.84,20.106,18.734,15,7.5,26.234" transform="translate(-0.958 -3.351)" fill="none" stroke="#cfd1d9" stroke-linejoin="round" stroke-width="1.5"/>
  </g>
</svg>
