<svg xmlns="http://www.w3.org/2000/svg" width="28.726" height="16.902" viewBox="0 0 28.726 16.902">
  <g id="voucher" transform="translate(0.15 405.351)">
    <path id="Path_151677" data-name="Path 151677" d="M1.427-404.847A1.958,1.958,0,0,0,.172-403.8c-.144.3-.144.322-.161,1.832-.028,1.993-.028,1.977.572,2.6a3.378,3.378,0,0,1,1.155,2.476,3.324,3.324,0,0,1-1.216,2.665c-.483.477-.522.627-.522,1.91a3.945,3.945,0,0,0,.072,1.122.436.436,0,0,0,.661.067,4.149,4.149,0,0,0,.1-1.16l.028-1.077.4-.4a4.2,4.2,0,0,0,1.277-2.415A4.1,4.1,0,0,0,1.3-399.806l-.444-.444-.017-1.41c-.022-1.6.006-1.777.316-2.087s.472-.333,2.1-.317l1.432.017.028.516c.033.577.089.677.416.677.3,0,.383-.155.405-.727l.022-.494h8.678c4.775,0,8.722-.017,8.772-.033a.479.479,0,0,0,.189-.516c-.117-.294.555-.278-10.9-.278C6.307-404.9,1.549-404.875,1.427-404.847Z" transform="translate(0 -0.28)" fill="#fff" stroke="#fff" stroke-width="0.3"/>
    <path id="Path_151678" data-name="Path 151678" d="M25.767-405.056a.383.383,0,0,0-.011.577c.122.117.178.122,1.266.122a9.853,9.853,0,0,1,1.355.061,1.132,1.132,0,0,1,.694.711,11.078,11.078,0,0,1,.044,1.643l-.017,1.41-.444.444a4.1,4.1,0,0,0-1.233,3.631,4.2,4.2,0,0,0,1.277,2.415l.4.4.017,1.61a12.086,12.086,0,0,1-.05,1.843,1.085,1.085,0,0,1-.733.705c-.189.044-3.043.061-10.749.061H7.085v-.389c0-.688-.294-.972-.683-.666-.133.105-.144.155-.161.572l-.017.455H3.171l-.25-.139a1.138,1.138,0,0,1-.439-.461c-.122-.2-.239-.333-.322-.35a.41.41,0,0,0-.516.527,2.106,2.106,0,0,0,1.1,1.155c.25.094.772.1,12.836.117,8.628.006,12.664-.005,12.858-.044a2.013,2.013,0,0,0,1.255-.877c.233-.378.266-.666.266-2.432,0-2-.006-2.043-.522-2.548a3.314,3.314,0,0,1-1.216-2.665,3.379,3.379,0,0,1,1.155-2.476c.6-.627.6-.611.572-2.6-.017-1.51-.017-1.532-.161-1.832a2.075,2.075,0,0,0-.938-.938c-.3-.139-.339-.144-1.621-.161l-1.316-.022Z" transform="translate(-1.533)" fill="#fff" stroke="#fff" stroke-width="0.3"/>
    <path id="Path_151679" data-name="Path 151679" d="M213.989-373.694a.556.556,0,0,0-.178.122c-.089.111-1.638,5.191-1.616,5.308.028.15.416.322.588.261.155-.056.2-.156.4-.844l.117-.4h1.932l.144.483c.2.677.222.722.389.761.194.05.55-.122.572-.272.022-.183-1.532-5.208-1.649-5.324A.89.89,0,0,0,213.989-373.694Zm.661,2.4c.2.694.366,1.288.366,1.321s-.228.061-.749.061-.749-.017-.749-.061.161-.622.361-1.3.361-1.26.361-1.282C214.239-372.678,214.322-372.423,214.65-371.3Z" transform="translate(-200.415 -29.724)" fill="#fff" stroke="#fff" stroke-width="0.3"/>
    <path id="Path_151680" data-name="Path 151680" d="M294.851-373.423A1.414,1.414,0,0,0,293.507-372c0,.777.255,1.094,1.277,1.582,1.038.5,1.233.683,1.233,1.182,0,.522-.344.805-.966.805a1.431,1.431,0,0,1-1.033-.411,1.308,1.308,0,0,0-.289-.2c-.094,0-.328.255-.361.389-.078.344.439.766,1.127.922a2.14,2.14,0,0,0,1.743-.272,1.466,1.466,0,0,0,.589-1.455c-.044-.822-.305-1.116-1.488-1.682-.866-.416-1-.539-1-.911.005-.455.305-.677.938-.677a1.636,1.636,0,0,1,.694.122c.383.172.566.161.672-.044.117-.222.106-.316-.05-.472A2.656,2.656,0,0,0,294.851-373.423Z" transform="translate(-277.073 -29.984)" fill="#fff" stroke="#fff" stroke-width="0.3"/>
    <path id="Path_151681" data-name="Path 151681" d="M143.128-372.713a1.6,1.6,0,0,0-.877.805c-.128.283-.133.35-.15,1.793-.022,1.61.011,1.938.239,2.337a1.762,1.762,0,0,0,1.832.683,1.473,1.473,0,0,0,1.416-1.427c0-.294-.111-.4-.411-.4s-.366.078-.428.422a.745.745,0,0,1-.472.633,1.466,1.466,0,0,1-1.01-.094c-.3-.222-.316-.305-.333-1.921-.017-1.383-.011-1.5.094-1.732a.866.866,0,0,1,.838-.472.859.859,0,0,1,.888.727.439.439,0,0,0,.711.294c.1-.067.122-.139.122-.361a1.379,1.379,0,0,0-.883-1.232A2.923,2.923,0,0,0,143.128-372.713Z" transform="translate(-134.206 -30.605)" fill="#fff" stroke="#fff" stroke-width="0.3"/>
    <path id="Path_151682" data-name="Path 151682" d="M371.1-372.954c-.094.05-.1.244-.1,2.765,0,3.031-.022,2.865.394,2.865.4,0,.411-.039.427-1.421l.017-1.216.955.011.955.017.028,1.249.028,1.244.139.072a.4.4,0,0,0,.528-.067l.139-.133v-2.615c0-2.537-.006-2.615-.111-2.721a.617.617,0,0,0-.616-.056c-.1.056-.106.128-.106,1.194v1.138h-1.938l-.017-1.116c-.017-1.027-.028-1.121-.122-1.194A.728.728,0,0,0,371.1-372.954Z" transform="translate(-350.398 -30.397)" fill="#fff" stroke="#fff" stroke-width="0.3"/>
    <path id="Path_151683" data-name="Path 151683" d="M85.111-351.866c-.1.1-.111.183-.111.911,0,.8,0,.805.144.916a.355.355,0,0,0,.511.006c.167-.161.189-.289.167-1.044-.011-.561-.033-.683-.122-.783A.441.441,0,0,0,85.111-351.866Z" transform="translate(-80.281 -50.269)" fill="#fff" stroke="#fff" stroke-width="0.3"/>
    <path id="Path_151684" data-name="Path 151684" d="M85.278-299.818c-.261.094-.278.161-.278.988,0,.672.017.811.1.911a.407.407,0,0,0,.583.011c.111-.105.122-.189.139-.766.022-.755-.033-1.022-.239-1.116C85.428-299.863,85.405-299.863,85.278-299.818Z" transform="translate(-80.281 -99.502)" fill="#fff" stroke="#fff" stroke-width="0.3"/>
    <path id="Path_151685" data-name="Path 151685" d="M85.122-246.819c-.117.111-.122.167-.122.916s.006.805.122.916a.415.415,0,0,0,.55.006c.128-.105.133-.133.133-.922s-.006-.816-.133-.922A.415.415,0,0,0,85.122-246.819Z" transform="translate(-80.281 -149.487)" fill="#fff" stroke="#fff" stroke-width="0.3"/>
    <path id="Path_151686" data-name="Path 151686" d="M215.925-243.9a.618.618,0,0,0-.211.289c-.239.65-1.527,4.969-1.516,5.086.022.189.383.372.594.3.122-.044.167-.128.316-.633l.167-.583.972-.017.977-.011.155.539c.15.527.278.738.455.738a.761.761,0,0,0,.489-.272c.028-.089-1.455-5.041-1.582-5.28A.7.7,0,0,0,215.925-243.9Zm1.094,3.72a3.275,3.275,0,0,1-.783.044c-.605,0-.777-.017-.755-.072.011-.033.128-.428.255-.872s.3-1.016.378-1.277l.144-.472.377,1.3C216.847-240.806,217.019-240.2,217.019-240.179Z" transform="translate(-202.306 -152.285)" fill="#fff" stroke="#fff" stroke-width="0.3"/>
    <path id="Path_151687" data-name="Path 151687" d="M143.089-243.029c-.078.078-.089.405-.089,2.765,0,2.426.011,2.693.094,2.759a8.493,8.493,0,0,0,2.221.055c.766-.144,1.133-.616,1.172-1.521.028-.666-.044-.944-.344-1.238a1.588,1.588,0,0,0-.311-.255c-.061-.017-.033-.078.122-.222a1.571,1.571,0,0,0,.366-1.438,1.113,1.113,0,0,0-.816-.9A7.588,7.588,0,0,0,143.089-243.029Zm2.015.705c.3.105.422.316.411.711-.011.616-.244.772-1.127.772h-.555V-242.4l.544.006A3.076,3.076,0,0,1,145.1-242.324Zm.167,2.249c.283.15.394.405.394.888a1.258,1.258,0,0,1-.111.622c-.167.322-.361.4-1.094.433l-.627.028v-2.071h.627A1.7,1.7,0,0,1,145.271-240.076Z" transform="translate(-135.061 -153.077)" fill="#fff" stroke="#fff" stroke-width="0.3"/>
    <path id="Path_151688" data-name="Path 151688" d="M300.3-242.808a1.369,1.369,0,0,0-.661.344c-.472.411-.55.8-.522,2.687.022,1.555.033,1.621.355,2.088a2.063,2.063,0,0,0,2.326.378,1.693,1.693,0,0,0,.727-.749,1.056,1.056,0,0,0-.011-.822.629.629,0,0,0-.633-.005.9.9,0,0,0-.117.344c-.094.494-.344.683-.894.683a.854.854,0,0,1-.794-.389c-.106-.183-.111-.289-.111-1.749,0-1.766.011-1.816.444-2.027a.909.909,0,0,1,1.36.594c.072.328.161.405.461.405.261,0,.372-.139.372-.477a1.329,1.329,0,0,0-.861-1.194A3.1,3.1,0,0,0,300.3-242.808Z" transform="translate(-282.504 -153.337)" fill="#fff" stroke="#fff" stroke-width="0.3"/>
    <path id="Path_151689" data-name="Path 151689" d="M376.111-242.889c-.105.106-.111.183-.111,2.721v2.615l.144.144a.318.318,0,0,0,.339.111c.344-.055.35-.072.35-1.022v-.861l.261-.328c.139-.183.272-.311.294-.289s.383.566.8,1.21.805,1.2.855,1.233a.457.457,0,0,0,.677-.294,11.279,11.279,0,0,0-.894-1.493,12.085,12.085,0,0,1-.866-1.427c.011-.039.355-.483.755-.983a4.329,4.329,0,0,0,.727-1.044A.479.479,0,0,0,379-243c-.156,0-.25.111-1.155,1.3l-.988,1.31-.017-1.238c-.017-1.388-.011-1.377-.411-1.377A.444.444,0,0,0,376.111-242.889Z" transform="translate(-355.124 -153.195)" fill="#fff" stroke="#fff" stroke-width="0.3"/>
    <path id="Path_151690" data-name="Path 151690" d="M85.305-194.393c-.283.056-.305.139-.305,1.01,0,.705.011.827.1.9a.394.394,0,0,0,.683-.172,4.125,4.125,0,0,0,.039-.849c-.011-.528-.033-.666-.117-.755A.386.386,0,0,0,85.305-194.393Z" transform="translate(-80.281 -199.092)" fill="#fff" stroke="#fff" stroke-width="0.3"/>
  </g>
</svg>
