<svg xmlns="http://www.w3.org/2000/svg" width="20" height="20" viewBox="0 0 20 20">
  <g id="Group_83537" data-name="Group 83537" transform="translate(-308.5 -488.5)" opacity="0.7">
    <path id="Path_136585" data-name="Path 136585" d="M15.4,13.5h8.55a1.9,1.9,0,0,1,1.9,1.9v8.55a1.9,1.9,0,0,1-1.9,1.9H15.4a1.9,1.9,0,0,1-1.9-1.9V15.4A1.9,1.9,0,0,1,15.4,13.5Z" transform="translate(302.15 482.15)" fill="none" stroke="#282828" stroke-linecap="round" stroke-linejoin="round" stroke-width="1"/>
    <path id="Path_136586" data-name="Path 136586" d="M5.85,15.35H4.9A1.9,1.9,0,0,1,3,13.45V4.9A1.9,1.9,0,0,1,4.9,3h8.55a1.9,1.9,0,0,1,1.9,1.9v.95" transform="translate(306 486)" fill="none" stroke="#282828" stroke-linecap="round" stroke-linejoin="round" stroke-width="1"/>
  </g>
</svg>
