<svg xmlns="http://www.w3.org/2000/svg" width="25" height="25" viewBox="0 0 25 25">
  <g id="Group_91264" data-name="Group 91264" transform="translate(-317 -76)">
    <path id="TODAY" d="M5.867-2.953H3.875q-.008-.43-.008-.523a3.485,3.485,0,0,1,.32-1.594A4.86,4.86,0,0,1,5.469-6.477,9.592,9.592,0,0,0,6.617-7.5a1.368,1.368,0,0,0,.289-.844,1.422,1.422,0,0,0-.512-1.1A1.994,1.994,0,0,0,5.016-9.9a2.089,2.089,0,0,0-1.4.477,2.536,2.536,0,0,0-.773,1.453L.828-8.219A3.345,3.345,0,0,1,2.02-10.594a4.222,4.222,0,0,1,2.9-.977,4.376,4.376,0,0,1,3.008.988,2.992,2.992,0,0,1,1.117,2.3,2.53,2.53,0,0,1-.41,1.375A9,9,0,0,1,6.883-5.141a3.348,3.348,0,0,0-.863.93A3.118,3.118,0,0,0,5.867-2.953ZM3.875,0V-2.2h2.2V0Z" transform="translate(324.172 94.57)" fill="#2c335a"/>
    <g id="Ellipse_2728" data-name="Ellipse 2728" transform="translate(317 76)" fill="none" stroke="#2c335a" stroke-width="1.5">
      <circle cx="12.5" cy="12.5" r="12.5" stroke="none"/>
      <circle cx="12.5" cy="12.5" r="11.75" fill="none"/>
    </g>
  </g>
</svg>
