<svg xmlns="http://www.w3.org/2000/svg" width="159" height="159" viewBox="0 0 159 159">
  <g id="Group_65503" data-name="Group 65503" transform="translate(15.521 7.464)">
    <circle id="Ellipse_2727" data-name="Ellipse 2727" cx="79.5" cy="79.5" r="79.5" transform="translate(-15.521 -7.464)" fill="#f5c3c3"/>
    <path id="Path_36" data-name="Path 36" d="M215.961,310.221a106.285,106.285,0,0,1-17.571-7.036l-7.449.7-7.449-.7a106.284,106.284,0,0,1-17.571,7.036c-10.909,3.4-15.187,16.878-13.69,29.712,0,0,10.377,9.481,37.482,10.028v.026c.414,0,.822,0,1.228-.006s.814.006,1.228.006v-.026c27.105-.546,37.482-10.028,37.482-10.028C231.148,327.1,226.87,313.623,215.961,310.221Z" transform="translate(-126.423 -226.235)" fill="#d17a7a"/>
    <g id="Group_20" data-name="Group 20" transform="translate(43.464 19.67)">
      <path id="Path_37" data-name="Path 37" d="M243.239,271.754l-9.177-.918-9.177.918s1.529,8.718-.918,15.448c0,0,3.059,3.824,10.095,3.824s10.1-3.824,10.1-3.824C241.71,280.472,243.239,271.754,243.239,271.754Z" transform="translate(-212.626 -226.71)" fill="#ffe9d9"/>
      <path id="Path_38" data-name="Path 38" d="M244.578,271.754l-9.177-.918-9.177.918a40.16,40.16,0,0,1,.471,6.3,18.738,18.738,0,0,0,3.608,4.062c1.877,1.529,5.4,1.878,6.322,1.878s4.445-.348,6.322-1.878a15.5,15.5,0,0,0,1.276-1.174A40.659,40.659,0,0,1,244.578,271.754Z" transform="translate(-213.965 -226.71)" fill="#c9c9c9" style="mix-blend-mode: multiply;isolation: isolate"/>
      <path id="Path_39" data-name="Path 39" d="M225.233,190.526c-9.292,0-15.372,7.533-15.372,16.825,0,6.969,3.42,17.014,9.05,21.6,1.877,1.529,5.4,1.878,6.322,1.878s4.445-.349,6.322-1.878c5.63-4.587,9.05-14.631,9.05-21.6C240.6,198.059,234.525,190.526,225.233,190.526Z" transform="translate(-204.256 -179.055)" fill="#ffe9d9"/>
      <path id="Path_40" data-name="Path 40" d="M242.712,193.473c0-2.978-4.828-5.391-10.783-5.391s-10.784,2.414-10.784,5.391,4.828,5.392,10.784,5.392S242.712,196.451,242.712,193.473Z" transform="translate(-210.951 -177.605)" fill="#48240a"/>
      <path id="Path_41" data-name="Path 41" d="M216.82,198.858s-7.7,3.378-7.347,16.659a27.86,27.86,0,0,1-1.371-10.694c.344-6.309,6.946-10.567,6.946-10.567Z" transform="translate(-203.184 -181.268)" fill="#48240a"/>
      <path id="Path_42" data-name="Path 42" d="M265.721,198.858s7.7,3.378,7.346,16.659a27.85,27.85,0,0,0,1.372-10.694c-.344-6.309-6.946-10.567-6.946-10.567Z" transform="translate(-237.402 -181.268)" fill="#48240a"/>
      <path id="Path_43" data-name="Path 43" d="M217.167,187.253s-.632-3.849,4.873-6.539c8.218-4.015,20.944.8,22.941,13.892C244.981,194.606,231.348,184.843,217.167,187.253Z" transform="translate(-208.578 -172.416)" fill="#48240a"/>
      <path id="Path_44" data-name="Path 44" d="M213.662,193.761s-1.881-1.512-5.048,1.848-1.241,12.4-1.241,12.4,3.994-12.185,8.7-12.753-3.05-1.5-3.05-1.5" transform="translate(-202.435 -180.773)" fill="#48240a"/>
      <path id="Path_45" data-name="Path 45" d="M265.448,193.761s1.881-1.512,5.048,1.848,1.241,12.4,1.241,12.4-3.995-12.185-8.7-12.753,3.05-1.5,3.05-1.5" transform="translate(-234.912 -180.773)" fill="#48240a"/>
      <path id="Path_46" data-name="Path 46" d="M287.572,236.681c-.472,4.282-4.491,7.352-6.632,7.117s-1.594-3.689-1.122-7.971.69-7.772,2.831-7.536S288.044,232.4,287.572,236.681Z" transform="translate(-245.511 -201.457)" fill="#b1b1b1"/>
      <path id="Path_47" data-name="Path 47" d="M281.654,235.826c.384-3.479.6-6.434,1.815-7.295a2.713,2.713,0,0,0-.819-.241c-2.141-.236-2.359,3.254-2.831,7.536s-1.019,7.735,1.122,7.971a3.075,3.075,0,0,0,1.266-.17C280.746,242.852,281.23,239.675,281.654,235.826Z" transform="translate(-245.511 -201.457)" fill="#fff"/>
      <path id="Path_48" data-name="Path 48" d="M196.122,236.681c.472,4.282,4.491,7.352,6.632,7.117s1.594-3.689,1.122-7.971-.69-7.772-2.831-7.536S195.65,232.4,196.122,236.681Z" transform="translate(-196.075 -201.457)" fill="#b1b1b1"/>
      <path id="Path_49" data-name="Path 49" d="M209.931,235.826c-.472-4.282-.69-7.772-2.831-7.536a2.713,2.713,0,0,0-.819.241c1.215.86,1.431,3.816,1.815,7.295.424,3.849.908,7.026-.552,7.8a3.074,3.074,0,0,0,1.265.17C210.95,243.562,210.4,240.108,209.931,235.826Z" transform="translate(-202.131 -201.457)" fill="#fff"/>
      <path id="Path_50" data-name="Path 50" d="M237.32,193.827l-1.309-.426c.041-.126,4.025-12.67-1.538-20.328-2.891-3.979-7.89-6-14.861-6s-11.975,2.019-14.864,6c-5.566,7.668-1.577,20.2-1.536,20.324l-1.308.426c-.176-.54-4.244-13.329,1.731-21.559,3.164-4.358,8.539-6.568,15.978-6.568s12.815,2.21,15.978,6.568C241.564,180.5,237.5,193.287,237.32,193.827Z" transform="translate(-198.634 -164.324)" fill="#b1b1b1"/>
      <path id="Path_51" data-name="Path 51" d="M210.748,170.869a2.065,2.065,0,0,1-1.416-3.568c3.512-3.308,8.626-4.985,15.2-4.985,6.442,0,11.485,1.611,14.989,4.789a2.065,2.065,0,0,1-2.775,3.059c-2.72-2.467-6.83-3.719-12.214-3.719-5.488,0-9.65,1.3-12.37,3.862A2.056,2.056,0,0,1,210.748,170.869Z" transform="translate(-203.557 -162.315)" fill="#fff"/>
      <path id="Path_52" data-name="Path 52" d="M251.8,268.061v-.918c6.488,0,11.3-1.661,13.91-4.805a8.308,8.308,0,0,0,2-4.685l.918.014a9.146,9.146,0,0,1-2.21,5.257C264.472,265.268,260.356,268.061,251.8,268.061Z" transform="translate(-229.143 -218.887)" fill="#b1b1b1"/>
      <path id="Path_53" data-name="Path 53" d="M248.74,279.066c0,1.013-1.335,1.836-2.982,1.836s-2.983-.822-2.983-1.836,1.335-1.836,2.983-1.836S248.74,278.052,248.74,279.066Z" transform="translate(-223.786 -230.504)" fill="#01063d"/>
    </g>
    <path id="Path_54" data-name="Path 54" d="M233.05,365.578c-1.11,1.666-.093-6.291-.555-10.454a160.525,160.525,0,0,1-2.707,21.134q1.06-.388,2-.779a108.281,108.281,0,0,0,3.3-16.007S234.16,363.913,233.05,365.578Zm-61.35,0c-1.11-1.666-2.036-6.107-2.036-6.107a110.6,110.6,0,0,0,3.521,16.807q.918.335,1.923.664a158.559,158.559,0,0,1-2.853-21.819C171.793,359.287,172.811,367.244,171.7,365.578Z" transform="translate(-136.94 -257.055)" fill="#bc5858"/>
  </g>
</svg>
