<svg xmlns="http://www.w3.org/2000/svg" width="20" height="20" viewBox="0 0 20 20">
  <path id="Shape" d="M11.386,17.826H.833a.87.87,0,0,1,0-1.739H11.386a2.915,2.915,0,0,1,2.781-2.174,2.783,2.783,0,0,1,1.749.617,3.1,3.1,0,0,1,1.032,1.557h2.219a.87.87,0,0,1,0,1.739H16.948a2.866,2.866,0,0,1-5.562,0Zm1.531-.869a1.251,1.251,0,1,0,1.25-1.3A1.279,1.279,0,0,0,12.916,16.956ZM3.052,10.869H.833a.87.87,0,0,1,0-1.739H3.052A2.915,2.915,0,0,1,5.833,6.956,2.915,2.915,0,0,1,8.614,9.131H19.167a.87.87,0,0,1,0,1.739H8.614a2.917,2.917,0,0,1-2.781,2.174A2.914,2.914,0,0,1,3.052,10.869ZM4.583,10a1.28,1.28,0,0,0,1.25,1.3,1.306,1.306,0,0,0,0-2.609A1.28,1.28,0,0,0,4.583,10Zm6.8-6.087H.833A.853.853,0,0,1,0,3.044a.853.853,0,0,1,.833-.869H11.386a2.866,2.866,0,0,1,5.562,0h2.219A.853.853,0,0,1,20,3.044a.853.853,0,0,1-.833.869H16.948a2.866,2.866,0,0,1-5.562,0Zm1.531-.869a1.251,1.251,0,1,0,2.5,0,1.251,1.251,0,1,0-2.5,0Z" fill="#fff"/>
</svg>
