<svg xmlns="http://www.w3.org/2000/svg" width="21.259" height="23.82" viewBox="0 0 21.259 23.82">
  <g id="Coupon" transform="translate(-126.87 -747.09)">
    <path id="Subtraction_1" data-name="Subtraction 1" d="M4355.258-2419.09h0l-2.668-1.54a3.49,3.49,0,0,0,.541-1.87,3.5,3.5,0,0,0-3.5-3.5,3.494,3.494,0,0,0-3.1,1.872L4344-2425.59l10-17.32,2.669,1.541a3.494,3.494,0,0,0-.54,1.869,3.5,3.5,0,0,0,3.5,3.5,3.494,3.494,0,0,0,3.1-1.872l2.531,1.461-10,17.319Z" transform="translate(-4217.13 3190)" fill="#fff"/>
    <rect id="Rectangle_95821" data-name="Rectangle 95821" width="4" height="4" transform="translate(137.827 757.503) rotate(73)" fill="#ebebeb"/>
    <rect id="Rectangle_95820" data-name="Rectangle 95820" width="4" height="4" transform="translate(138.328 756.503) rotate(73)" fill="#ffa2a2"/>
  </g>
</svg>
