<svg xmlns="http://www.w3.org/2000/svg" width="76" height="76" viewBox="0 0 76 76">
  <g id="Group_65503" data-name="Group 65503" transform="translate(15.521 7.464)">
    <circle id="Ellipse_2727" data-name="Ellipse 2727" cx="38" cy="38" r="38" transform="translate(-15.521 -7.464)" fill="#3b3a3a"/>
    <path id="Path_36" data-name="Path 36" d="M182.639,306.559a50.962,50.962,0,0,1-8.425-3.374l-3.572.335-3.572-.335a50.962,50.962,0,0,1-8.425,3.374c-5.231,1.631-7.282,8.093-6.564,14.247,0,0,4.976,4.546,17.972,4.808v.012c.2,0,.394,0,.589,0s.391,0,.589,0v-.012c13-.262,17.972-4.808,17.972-4.808C189.921,314.652,187.869,308.19,182.639,306.559Z" transform="translate(-147.785 -270.173)" fill="#6f7faf"/>
    <g id="Group_20" data-name="Group 20" transform="translate(12.762 5.547)">
      <path id="Path_37" data-name="Path 37" d="M233.208,271.276l-4.4-.44-4.4.44a16.887,16.887,0,0,1-.44,7.407,7.306,7.306,0,0,0,9.681,0A16.887,16.887,0,0,1,233.208,271.276Z" transform="translate(-218.529 -249.678)" fill="#ffe9d9"/>
      <path id="Path_38" data-name="Path 38" d="M235.025,271.276l-4.4-.44-4.4.44a19.256,19.256,0,0,1,.226,3.019,8.985,8.985,0,0,0,1.73,1.948,5.553,5.553,0,0,0,6.063,0,7.434,7.434,0,0,0,.612-.563A19.5,19.5,0,0,1,235.025,271.276Z" transform="translate(-220.346 -249.678)" fill="#c9c9c9" style="mix-blend-mode: multiply;isolation: isolate"/>
      <path id="Path_39" data-name="Path 39" d="M217.232,190.526c-4.455,0-7.371,3.612-7.371,8.068,0,3.342,1.64,8.158,4.339,10.357a5.552,5.552,0,0,0,6.063,0c2.7-2.2,4.339-7.016,4.339-10.357C224.6,194.138,221.687,190.526,217.232,190.526Z" transform="translate(-207.173 -185.026)" fill="#ffe9d9"/>
      <path id="Path_40" data-name="Path 40" d="M231.486,190.667c0-1.428-2.315-2.585-5.17-2.585s-5.171,1.157-5.171,2.585,2.315,2.585,5.171,2.585S231.486,192.095,231.486,190.667Z" transform="translate(-216.257 -183.058)" fill="#48240a"/>
      <path id="Path_41" data-name="Path 41" d="M212.258,196.462s-3.69,1.62-3.523,7.988a13.359,13.359,0,0,1-.658-5.128c.165-3.025,3.331-5.067,3.331-5.067Z" transform="translate(-205.72 -188.028)" fill="#48240a"/>
      <path id="Path_42" data-name="Path 42" d="M265.721,196.462s3.69,1.62,3.523,7.988a13.354,13.354,0,0,0,.658-5.128c-.165-3.025-3.331-5.067-3.331-5.067Z" transform="translate(-252.142 -188.028)" fill="#48240a"/>
      <path id="Path_43" data-name="Path 43" d="M217.155,183.133s-.3-1.846,2.337-3.135c3.94-1.925,10.043.385,11,6.661C230.492,186.659,223.955,181.978,217.155,183.133Z" transform="translate(-213.037 -176.019)" fill="#48240a"/>
      <path id="Path_44" data-name="Path 44" d="M210.087,193.585s-.9-.725-2.42.886-.6,5.947-.6,5.947,1.915-5.843,4.17-6.115-1.463-.718-1.463-.718" transform="translate(-204.703 -187.357)" fill="#48240a"/>
      <path id="Path_45" data-name="Path 45" d="M263.406,193.585s.9-.725,2.42.886.6,5.947.6,5.947-1.915-5.843-4.17-6.115,1.463-.718,1.463-.718" transform="translate(-248.764 -187.357)" fill="#48240a"/>
      <path id="Path_46" data-name="Path 46" d="M283.312,232.308c-.226,2.053-2.153,3.525-3.18,3.412s-.764-1.769-.538-3.822.331-3.726,1.357-3.613S283.538,230.255,283.312,232.308Z" transform="translate(-263.144 -215.418)" fill="#b1b1b1"/>
      <path id="Path_47" data-name="Path 47" d="M280.474,231.9c.184-1.668.287-3.085.87-3.5a1.3,1.3,0,0,0-.393-.116c-1.027-.113-1.131,1.56-1.357,3.613s-.489,3.709.538,3.822a1.475,1.475,0,0,0,.607-.081C280.039,235.267,280.271,233.743,280.474,231.9Z" transform="translate(-263.144 -215.418)" fill="#fff"/>
      <path id="Path_48" data-name="Path 48" d="M196.1,232.308c.226,2.053,2.153,3.525,3.18,3.412s.764-1.769.538-3.822-.331-3.726-1.357-3.613S195.871,230.255,196.1,232.308Z" transform="translate(-196.075 -215.418)" fill="#b1b1b1"/>
      <path id="Path_49" data-name="Path 49" d="M208.031,231.9c-.226-2.053-.331-3.726-1.357-3.613a1.3,1.3,0,0,0-.393.116c.583.413.686,1.83.87,3.5.2,1.845.435,3.369-.265,3.741a1.474,1.474,0,0,0,.607.081C208.52,235.607,208.257,233.951,208.031,231.9Z" transform="translate(-204.291 -215.418)" fill="#fff"/>
      <path id="Path_50" data-name="Path 50" d="M218.1,179.187l-.628-.2c.02-.06,1.93-6.075-.738-9.747-1.386-1.908-3.783-2.875-7.126-2.875s-5.742.968-7.127,2.877c-2.669,3.677-.756,9.685-.736,9.745l-.627.2c-.084-.259-2.035-6.391.83-10.338,1.517-2.09,4.095-3.149,7.661-3.149s6.145,1.059,7.661,3.149C220.131,172.8,218.181,178.928,218.1,179.187Z" transform="translate(-199.547 -165.04)" fill="#b1b1b1"/>
      <path id="Path_51" data-name="Path 51" d="M209.673,166.416a.99.99,0,0,1-.679-1.711c1.684-1.586,4.136-2.391,7.289-2.391,3.089,0,5.507.772,7.187,2.3a.99.99,0,0,1-1.331,1.467c-1.3-1.183-3.275-1.783-5.857-1.783-2.632,0-4.627.623-5.931,1.852A.986.986,0,0,1,209.673,166.416Z" transform="translate(-206.225 -162.315)" fill="#fff"/>
      <path id="Path_52" data-name="Path 52" d="M251.8,262.644v-.44c3.111,0,5.417-.8,6.67-2.3a3.984,3.984,0,0,0,.958-2.246l.44.007a4.385,4.385,0,0,1-1.059,2.521C257.878,261.3,255.9,262.644,251.8,262.644Z" transform="translate(-240.938 -239.065)" fill="#b1b1b1"/>
      <path id="Path_53" data-name="Path 53" d="M245.635,278.11c0,.486-.64.88-1.43.88s-1.43-.394-1.43-.88.64-.88,1.43-.88S245.635,277.624,245.635,278.11Z" transform="translate(-233.67 -254.825)" fill="#01063d"/>
    </g>
    <path id="Path_54" data-name="Path 54" d="M200.058,360.137c-.532.8-.044-3.017-.266-5.013a76.971,76.971,0,0,1-1.3,10.134q.508-.186.96-.374a51.921,51.921,0,0,0,1.58-7.675A12,12,0,0,1,200.058,360.137Zm-29.417,0a12,12,0,0,1-.976-2.928,53.031,53.031,0,0,0,1.688,8.059q.44.161.922.319a76.029,76.029,0,0,1-1.368-10.462C170.685,357.12,171.173,360.935,170.641,360.137Z" transform="translate(-162.053 -311.985)" fill="#b29999" opacity="0.5"/>
  </g>
</svg>
