<svg width="42" height="49" viewBox="0 0 42 49" fill="none" xmlns="http://www.w3.org/2000/svg">
<path d="M3.15738 20.7835L7.44106 36.7704C7.54761 37.168 7.69664 37.5475 7.88308 37.8899C8.08599 38.2685 8.33262 38.6083 8.6116 38.892C8.94704 39.2351 9.32407 39.5061 9.72792 39.6753L17.9455 43.1286L22.1772 44.9102C22.4438 45.0214 22.7048 45.0868 22.9666 45.1046C23.2285 45.1224 23.4801 45.1023 23.7263 45.0363L28.0181 43.8863L26.4886 42.1924L27.0282 41.4796L27.2841 41.1472L27.7787 40.4938L30.238 37.2507L32.0786 34.8296L33.1733 33.3863C33.1826 33.3703 33.1935 33.3606 33.2027 33.3446C33.8658 32.4364 34.0599 31.0653 33.7014 29.7272L29.4194 13.7466C29.0575 12.396 28.1861 11.29 27.1325 10.8418L16.9484 6.56249L17.4259 4.33073L13.1342 5.48071C12.6671 5.60586 12.236 5.89048 11.8977 6.31936C11.8885 6.33537 11.8729 6.35306 11.862 6.36276L10.7673 7.80607L8.99808 10.1404L8.92833 10.2335L5.72318 14.4543L3.69344 17.129C3.37237 17.5465 3.16086 18.07 3.05801 18.6454C2.93296 19.3148 2.9612 20.0514 3.15738 20.7835Z" fill="#99003E"/>
<path opacity="0.4" d="M3.04842 18.6407L16.8263 14.949L15.098 8.49865L8.99481 10.134L8.92505 10.2271L5.7199 14.4479L3.69016 17.1226C3.37079 17.5464 3.15128 18.0653 3.04842 18.6407Z" fill="#311A56"/>
<path opacity="0.4" d="M17.9497 43.1279L22.1815 44.9096C22.448 45.0208 22.7091 45.0861 22.9709 45.1039C23.2327 45.1217 23.4844 45.1016 23.7305 45.0357L28.0223 43.8857L27.1581 40.6605L17.9497 43.1279Z" fill="#311A56"/>
<path opacity="0.4" d="M5.69507 30.2515L7.44203 36.7712C7.54857 37.1688 7.6976 37.5483 7.88405 37.8907C8.08695 38.2693 8.33359 38.609 8.61256 38.8928L18.0798 36.3561L15.724 27.5642L5.69507 30.2515Z" fill="white"/>
<path d="M7.45059 19.6326L11.7343 35.6196C12.0962 36.9702 12.9675 38.0761 14.0211 38.5244L26.4767 43.7577C27.5287 44.1996 28.6016 43.9121 29.298 43.0017L31.3277 40.327L32.3123 39.0282L34.5329 36.1062L36.3332 33.7365L36.3689 33.6931L37.3737 32.3686L37.4636 32.2498C37.4728 32.2338 37.4838 32.2241 37.493 32.2081C38.1561 31.2998 38.3502 29.9287 37.9916 28.5907L33.7063 12.5974C33.3444 11.2468 32.473 10.1409 31.4194 9.6926L18.9701 4.45763C18.4433 4.2335 17.9133 4.19962 17.4274 4.32984C17.2002 4.39072 16.9831 4.48947 16.7871 4.61639C16.5676 4.75639 16.3679 4.9452 16.1909 5.16848C16.1817 5.18449 16.1661 5.20219 16.1552 5.21188L15.2403 6.41759L15.0651 6.64719L14.1952 7.79349L13.2262 9.07461L10.1761 13.0915L10.021 13.2954L7.99127 15.9702C7.28862 16.8822 7.08699 18.2757 7.45059 19.6326Z" fill="url(#paint0_linear_4423_72)"/>
<path opacity="0.15" d="M15.2352 6.42019L37.3794 32.3615L37.4694 32.2427C37.4786 32.2267 37.4895 32.217 37.4988 32.201C38.1619 31.2927 38.3559 29.9216 37.9974 28.5836L37.9365 28.3564L17.4285 4.33074C17.4239 4.33875 17.158 4.45734 16.7882 4.6173C16.5687 4.7573 16.369 4.9461 16.1921 5.16939C16.1828 5.1854 16.1673 5.20309 16.1563 5.21279L15.2352 6.42019Z" fill="white"/>
<path opacity="0.4" d="M10.1673 13.0946L32.3099 39.0296L34.5287 36.1013L36.3353 33.7298L14.1865 7.79656L13.2174 9.07768L10.1673 13.0946Z" fill="white"/>
<path d="M13.4279 33.8399L9.80713 20.3271C9.49427 19.1595 9.73941 17.9032 10.4698 16.9431L16.2707 9.30737C17.3499 7.88176 19.2623 7.36934 20.9097 8.06438L29.7513 11.7766C30.8719 12.2476 31.7043 13.2083 32.0172 14.3759L35.6379 27.8888C35.9508 29.0564 35.7056 30.3126 34.9753 31.2727L29.1743 38.9085C28.0952 40.3341 26.1828 40.8465 24.5354 40.1515L15.6937 36.4392C14.5732 35.9683 13.7407 35.0076 13.4279 33.8399Z" fill="url(#paint1_linear_4423_72)"/>
<path d="M9.79545 20.2956L13.4314 33.8653C13.6411 34.6479 14.1971 35.2836 14.9441 35.5976L24.3892 39.5675C25.4875 40.0309 26.7624 39.6893 27.4818 38.7389L33.6765 30.5782C33.6904 30.5542 33.7122 30.5348 33.7261 30.5108C34.1782 29.8756 34.3216 29.0727 34.1204 28.3217L30.4844 14.752C30.2747 13.9694 29.7188 13.3337 28.9717 13.0197L19.5266 9.04977C18.9312 8.79668 18.2779 8.78231 17.6948 8.97915C17.2093 9.1363 16.7706 9.44324 16.445 9.86874L16.2853 10.0806L10.241 18.0454C9.74933 18.6845 9.58744 19.5193 9.79545 20.2956Z" fill="url(#paint2_linear_4423_72)"/>
<path opacity="0.15" d="M16.2907 10.0811L33.7395 30.5159C34.1917 29.8806 34.3351 29.0778 34.1338 28.3267L34.0932 28.1753L17.7002 8.97959C17.2147 9.13675 16.7761 9.44369 16.4504 9.86918L16.2907 10.0811Z" fill="white"/>
<path opacity="0.15" d="M10.6096 17.5478L28.0585 37.9826L29.6091 35.9436L30.234 35.12L32.0839 32.6828L14.6304 12.256L12.81 14.6514L11.5014 16.3821L10.6096 17.5478Z" fill="white"/>
<path d="M26.2112 17.5282L26.0072 16.819C25.9496 16.619 25.7776 16.4865 25.6214 16.5254L25.1529 16.6423L24.975 16.024C24.9175 15.824 24.7454 15.6915 24.5893 15.7304L23.0464 16.1154C22.8902 16.1544 22.8124 16.3492 22.8699 16.5493L23.0478 17.1676L22.5794 17.2845C22.4232 17.3235 22.3454 17.5183 22.4029 17.7184L22.607 18.4276C22.6645 18.6276 22.8366 18.7601 22.9927 18.7212L23.4612 18.6043L23.7386 19.5681L23.2701 19.685C23.1139 19.724 23.0361 19.9188 23.0936 20.1189L23.2977 20.8281C23.3553 21.0282 23.5273 21.1606 23.6834 21.1217L24.1519 21.0048L24.8671 23.4902L17.9449 17.5118C17.8677 17.4531 17.7806 17.4294 17.7056 17.4481L16.3001 17.7988C16.144 17.8378 16.0661 18.0326 16.1237 18.2326L18.1801 25.3796L17.6991 25.4996C17.543 25.5386 17.4651 25.7334 17.5227 25.9335L17.7268 26.6427C17.7843 26.8428 17.9564 26.9753 18.1125 26.9363L18.5935 26.8163L18.8708 27.7801L18.3898 27.9001C18.2337 27.9391 18.1558 28.134 18.2134 28.334L18.4175 29.0432C18.475 29.2433 18.6471 29.3758 18.8032 29.3368L19.2842 29.2168L19.4551 29.8109C19.5127 30.0109 19.6847 30.1434 19.8409 30.1044L21.3838 29.7195C21.5399 29.6805 21.6178 29.4856 21.5602 29.2856L21.3893 28.6915L21.8703 28.5715C22.0264 28.5326 22.1043 28.3377 22.0467 28.1377L21.8426 27.4284C21.7851 27.2284 21.6131 27.0959 21.4569 27.1348L20.9759 27.2549L20.6986 26.291L21.1796 26.171C21.3357 26.132 21.4136 25.9372 21.356 25.7372L21.1519 25.0279C21.0944 24.8279 20.9223 24.6954 20.7662 24.7343L20.2852 24.8544L19.5526 22.3084L26.496 28.3139C26.5732 28.3726 26.6604 28.3963 26.7353 28.3776L28.122 28.0316C28.2782 27.9926 28.356 27.7978 28.2985 27.5977L26.2508 20.4811L26.7193 20.3642C26.8754 20.3252 26.9533 20.1304 26.8957 19.9303L26.6916 19.2211C26.6341 19.021 26.462 18.8885 26.3059 18.9275L25.8374 19.0444L25.5601 18.0806L26.0285 17.9637C26.1847 17.9247 26.2688 17.7283 26.2112 17.5282Z" fill="url(#paint3_linear_4423_72)"/>
<path d="M27.0875 17.3056L26.8834 16.5964C26.8258 16.3963 26.6538 16.2638 26.4976 16.3028L26.0291 16.4197L25.8512 15.8014C25.7937 15.6013 25.6217 15.4688 25.4655 15.5078L23.9226 15.8928C23.7664 15.9317 23.6886 16.1266 23.7462 16.3266L23.9241 16.9449L23.4556 17.0618C23.2994 17.1008 23.2216 17.2957 23.2791 17.4957L23.4832 18.2049C23.5408 18.405 23.7128 18.5375 23.869 18.4985L24.3374 18.3816L24.6148 19.3455L24.1463 19.4624C23.9901 19.5013 23.9123 19.6962 23.9698 19.8962L24.1739 20.6055C24.2315 20.8055 24.4035 20.938 24.5597 20.899L25.0282 20.7821L25.7433 23.2675L18.8211 17.2892C18.7439 17.2305 18.6568 17.2067 18.5818 17.2254L17.1763 17.5761C17.0202 17.6151 16.9423 17.8099 16.9999 18.01L19.0563 25.157L18.5754 25.277C18.4192 25.3159 18.3414 25.5108 18.3989 25.7108L18.603 26.4201C18.6606 26.6201 18.8326 26.7526 18.9887 26.7137L19.4697 26.5936L19.7471 27.5575L19.2661 27.6775C19.1099 27.7165 19.0321 27.9113 19.0896 28.1113L19.2937 28.8206C19.3513 29.0206 19.5233 29.1531 19.6795 29.1142L20.1604 28.9941L20.3314 29.5882C20.3889 29.7883 20.5609 29.9208 20.7171 29.8818L22.2538 29.4984C22.4099 29.4594 22.4878 29.2645 22.4302 29.0645L22.2593 28.4704L22.7402 28.3504C22.8964 28.3115 22.9742 28.1166 22.9167 27.9166L22.7126 27.2073C22.6551 27.0073 22.483 26.8748 22.3269 26.9137L21.8459 27.0338L21.5686 26.0699L22.0495 25.9499C22.2057 25.9109 22.2835 25.7161 22.226 25.5161L22.0219 24.8068C21.9643 24.6068 21.7923 24.4743 21.6362 24.5132L21.1552 24.6333L20.4226 22.0873L27.366 28.0928C27.4432 28.1515 27.5303 28.1752 27.6053 28.1565L28.9983 27.8089C29.1544 27.77 29.2323 27.5751 29.1747 27.3751L27.127 20.2584L27.5955 20.1415C27.7516 20.1026 27.8295 19.9077 27.7719 19.7077L27.5678 18.9984C27.5103 18.7984 27.3383 18.6659 27.1821 18.7048L26.7136 18.8217L26.4363 17.8579L26.9048 17.741C27.0609 17.702 27.145 17.5056 27.0875 17.3056Z" fill="url(#paint4_linear_4423_72)"/>
<defs>
<linearGradient id="paint0_linear_4423_72" x1="34.6312" y1="36.014" x2="9.13126" y2="10.514" gradientUnits="userSpaceOnUse">
<stop stop-color="#F52D6A"/>
<stop offset="1" stop-color="#FE6587"/>
</linearGradient>
<linearGradient id="paint1_linear_4423_72" x1="32.6733" y1="34.0574" x2="11.3639" y2="12.748" gradientUnits="userSpaceOnUse">
<stop stop-color="#7B0067"/>
<stop offset="1" stop-color="#E01266"/>
</linearGradient>
<linearGradient id="paint2_linear_4423_72" x1="13.2819" y1="32.9879" x2="31.8638" y2="14.4061" gradientUnits="userSpaceOnUse">
<stop stop-color="#F52D6A"/>
<stop offset="1" stop-color="#FE6587"/>
</linearGradient>
<linearGradient id="paint3_linear_4423_72" x1="20.2536" y1="30.2484" x2="24.1757" y2="15.5929" gradientUnits="userSpaceOnUse">
<stop stop-color="#8A277D"/>
<stop offset="1" stop-color="#C62D54"/>
</linearGradient>
<linearGradient id="paint4_linear_4423_72" x1="21.1287" y1="30.026" x2="25.0508" y2="15.3705" gradientUnits="userSpaceOnUse">
<stop stop-color="white"/>
<stop offset="1" stop-color="#FFC7DD"/>
</linearGradient>
</defs>
</svg>
